<?xml version="1.0" encoding="UTF-8"?>
<!DOCTYPE svg PUBLIC "-//W3C//DTD SVG 1.1//EN" "http://www.w3.org/Graphics/SVG/1.1/DTD/svg11.dtd">
<svg xmlns="http://www.w3.org/2000/svg" version="1.1" width="512px" height="512px" style="shape-rendering:geometricPrecision; text-rendering:geometricPrecision; image-rendering:optimizeQuality; fill-rule:evenodd; clip-rule:evenodd" xmlns:xlink="http://www.w3.org/1999/xlink">
<g><path style="opacity:0.933" fill="currentColor" d="M 67.5,-0.5 C 74.1667,-0.5 80.8333,-0.5 87.5,-0.5C 101.854,2.00939 115.521,6.84272 128.5,14C 145.772,24.9411 162.772,36.2744 179.5,48C 214.602,68.776 252.602,78.6094 293.5,77.5C 321.832,78.0966 349.166,73.2633 375.5,63C 385.343,58.5835 394.343,52.9169 402.5,46C 415.066,32.8568 427.399,19.5234 439.5,6C 443.23,3.80704 446.897,1.64038 450.5,-0.5C 453.833,-0.5 457.167,-0.5 460.5,-0.5C 463.894,3.06189 464.727,7.06189 463,11.5C 453.145,22.5448 446.479,35.2114 443,49.5C 447.133,44.3656 451.633,39.5323 456.5,35C 466.154,31.9879 470.32,35.4879 469,45.5C 457.667,57.5 446.333,69.5 435,81.5C 432.443,84.3922 430.276,87.5589 428.5,91C 430.807,90.3575 433.141,89.3575 435.5,88C 442.328,83.0852 449.328,78.4186 456.5,74C 465.348,73.848 468.515,78.0147 466,86.5C 452.568,97.2473 438.068,106.414 422.5,114C 451.766,139.39 464.932,171.557 462,210.5C 456.232,251.56 434.732,281.06 397.5,299C 390.24,302.733 382.573,304.4 374.5,304C 370.387,300.491 369.554,296.324 372,291.5C 380.771,287.682 389.604,283.848 398.5,280C 437.339,255.136 452.173,219.969 443,174.5C 436.507,152.672 424.007,135.172 405.5,122C 400.736,124.05 396.403,127.05 392.5,131C 415.997,143.165 425.164,162.331 420,188.5C 408.496,217.169 387.663,227.669 357.5,220C 340.068,213.229 330.235,200.729 328,182.5C 334.272,161.799 346.106,144.966 363.5,132C 374.453,124.048 385.12,115.715 395.5,107C 403.533,99.6383 410.033,91.1383 415,81.5C 419.176,70.316 422.509,58.9827 425,47.5C 402.096,71.0366 374.262,85.2033 341.5,90C 301.485,96.0002 261.818,94.3335 222.5,85C 198.519,78.2592 176.686,67.4259 157,52.5C 166.361,67.5351 175.028,83.2018 183,99.5C 191.377,112.215 201.544,123.381 213.5,133C 226.785,142.617 239.785,152.617 252.5,163C 259.711,169.756 263.711,178.09 264.5,188C 264.286,193.548 261.453,196.381 256,196.5C 253.648,196.695 251.648,196.028 250,194.5C 235.566,219.791 214.399,227.958 186.5,219C 165.395,208.293 156.228,191.126 159,167.5C 162.538,150.634 172.038,138.468 187.5,131C 181.625,124.793 176.125,118.293 171,111.5C 163.556,99.6136 156.889,87.2803 151,74.5C 130.77,43.4491 102.603,23.2825 66.5,14C 62.3778,8.88794 62.7112,4.05461 67.5,-0.5 Z M 229.5,166.5 C 236.225,169.706 238.392,175.039 236,182.5C 227.749,203.542 212.915,210.375 191.5,203C 173.881,190.689 170.381,175.189 181,156.5C 186.627,149.606 193.793,145.772 202.5,145C 204.208,147.043 206.208,148.71 208.5,150C 186.791,152.373 178.291,164.206 183,185.5C 189.814,197.765 199.98,202.265 213.5,199C 227.746,192.674 233.079,181.841 229.5,166.5 Z M 374.5,144.5 C 393.129,146.462 403.462,156.795 405.5,175.5C 403.467,194.2 393.134,204.533 374.5,206.5C 359.689,205.685 349.689,198.352 344.5,184.5C 345.846,179.963 347.679,175.629 350,171.5C 350.873,192.72 361.706,201.887 382.5,199C 399.514,190.467 403.681,177.634 395,160.5C 387.646,152.038 378.48,148.871 367.5,151C 369.907,148.817 372.24,146.65 374.5,144.5 Z M 205.5,166.5 C 214.569,169.444 216.236,174.611 210.5,182C 203.411,184.927 199.077,182.593 197.5,175C 198.323,170.346 200.99,167.512 205.5,166.5 Z M 374.5,166.5 C 383.569,169.444 385.236,174.611 379.5,182C 372.411,184.927 368.077,182.593 366.5,175C 367.323,170.346 369.99,167.512 374.5,166.5 Z"/></g>
<g><path style="opacity:0.925" fill="currentColor" d="M 45.5,18.5 C 50.1542,18.3282 54.1542,19.8282 57.5,23C 69.0897,32.6014 76.5897,44.768 80,59.5C 83.0779,74.8898 86.4113,90.2231 90,105.5C 93.2723,115.375 97.6057,124.708 103,133.5C 106.108,130.77 108.608,127.603 110.5,124C 101.258,104.366 95.9246,83.6993 94.5,62C 94.8143,54.1703 98.8143,51.1703 106.5,53C 108,53.8333 109.167,55 110,56.5C 111.538,72.8561 114.871,88.8561 120,104.5C 120.956,107.377 122.289,110.044 124,112.5C 132.307,105.926 141.474,100.76 151.5,97C 157.649,96.1388 161.316,98.8054 162.5,105C 162.097,107.887 160.764,110.221 158.5,112C 116.08,130.981 96.2466,163.814 99,210.5C 106.855,251.859 131.022,278.526 171.5,290.5C 175.433,295.574 174.766,300.074 169.5,304C 162.549,304.356 155.882,303.023 149.5,300C 106.666,280.125 83.999,246.458 81.5,199C 81.9634,191.545 82.9634,184.212 84.5,177C 60.6271,156.751 47.7938,130.917 46,99.5C 49.0892,94.6945 53.2558,93.5278 58.5,96C 60.317,97.7998 61.4837,99.9664 62,102.5C 65.2682,124.349 74.2682,143.349 89,159.5C 90.597,156.209 92.097,152.875 93.5,149.5C 82.4746,133.773 74.9746,116.44 71,97.5C 68.6007,82.1649 64.934,67.1649 60,52.5C 57.9164,48.6641 55.583,44.9974 53,41.5C 48.7277,38.0477 44.7277,34.381 41,30.5C 39.4742,25.2389 40.9742,21.2389 45.5,18.5 Z"/></g>
<g><path style="opacity:0.889" fill="currentColor" d="M 203.5,88.5 C 206.425,88.4598 209.091,89.2932 211.5,91C 214,94.1667 216.5,97.3333 219,100.5C 220.268,110.569 216.102,114.069 206.5,111C 203.882,108.261 201.382,105.427 199,102.5C 195.999,96.1568 197.499,91.4901 203.5,88.5 Z"/></g>
<g><path style="opacity:0.896" fill="currentColor" d="M 318.5,102.5 C 324.473,102.635 327.473,105.635 327.5,111.5C 327.245,117.72 325.245,123.22 321.5,128C 314.223,130.038 310.223,127.371 309.5,120C 309.961,114.989 311.128,110.156 313,105.5C 314.876,104.391 316.709,103.391 318.5,102.5 Z"/></g>
<g><path style="opacity:0.895" fill="currentColor" d="M 268.5,103.5 C 273.266,102.551 277.1,103.884 280,107.5C 281.324,111.796 282.491,116.129 283.5,120.5C 282.303,127.273 278.303,129.773 271.5,128C 266.332,122.162 264.166,115.329 265,107.5C 265.69,105.65 266.856,104.316 268.5,103.5 Z"/></g>
<g><path style="opacity:0.889" fill="currentColor" d="M 352.5,103.5 C 358.419,103.087 362.085,105.754 363.5,111.5C 361.406,119.391 356.74,125.057 349.5,128.5C 342.699,127.236 340.199,123.236 342,116.5C 344.571,111.324 348.071,106.991 352.5,103.5 Z"/></g>
<g><path style="opacity:0.884" fill="currentColor" d="M 235.5,109.5 C 237.927,109.523 240.26,110.023 242.5,111C 246.343,115.506 249.343,120.506 251.5,126C 249.76,133.242 245.426,135.575 238.5,133C 232.754,128.017 229.92,121.851 230,114.5C 231.107,111.887 232.94,110.22 235.5,109.5 Z"/></g>
<g><path style="opacity:0.885" fill="currentColor" d="M 292.5,129.5 C 300.556,129.055 304.556,132.889 304.5,141C 304,144.5 303.5,148 303,151.5C 300.442,155.212 296.942,156.378 292.5,155C 290.333,154.167 288.833,152.667 288,150.5C 287.333,145.5 287.333,140.5 288,135.5C 288.599,132.746 290.099,130.746 292.5,129.5 Z"/></g>
<g><path style="opacity:0.89" fill="currentColor" d="M 325.5,132.5 C 330.589,133.089 333.589,135.922 334.5,141C 333.198,146.107 331.198,150.94 328.5,155.5C 323.672,159.702 319.172,159.368 315,154.5C 314.333,151.5 314.333,148.5 315,145.5C 316.608,142.618 317.941,139.618 319,136.5C 320.792,134.372 322.958,133.039 325.5,132.5 Z"/></g>
<g><path style="opacity:0.884" fill="currentColor" d="M 263.5,134.5 C 266.32,134.248 268.986,134.748 271.5,136C 277.057,141.562 279.224,148.062 278,155.5C 274.39,159.796 270.223,160.463 265.5,157.5C 261.064,152.262 258.898,146.262 259,139.5C 260.025,137.313 261.525,135.646 263.5,134.5 Z"/></g>
<g><path style="opacity:0.922" fill="currentColor" d="M 284.5,180.5 C 312.614,181.467 330.447,195.467 338,222.5C 340.917,237.67 339.25,252.337 333,266.5C 326.49,280.705 317.656,293.205 306.5,304C 301.269,305.724 297.435,304.224 295,299.5C 296.074,287.102 293.74,275.435 288,264.5C 286.5,263 285,261.5 283.5,260C 275.167,256.333 266.833,252.667 258.5,249C 255.449,245.852 254.949,242.352 257,238.5C 258.743,236.129 261.077,234.795 264,234.5C 275.674,237.607 286.508,242.44 296.5,249C 303.15,255.983 307.65,264.15 310,273.5C 322.117,257.388 325.45,239.721 320,220.5C 312.551,204.736 300.051,196.569 282.5,196C 276.87,189.988 277.537,184.821 284.5,180.5 Z"/></g>
<g><path style="opacity:0.925" fill="currentColor" d="M 70.5,197.5 C 78.6616,197.498 81.8283,201.498 80,209.5C 64.4658,231.291 57.1325,255.624 58,282.5C 48.0758,295.349 41.0758,309.683 37,325.5C 36.502,328.482 36.3354,331.482 36.5,334.5C 44.4647,333.425 52.1314,331.259 59.5,328C 68.4611,323.272 77.2944,318.439 86,313.5C 93.1014,315.096 95.4347,319.429 93,326.5C 73.1513,342.895 50.318,351.395 24.5,352C 22.1898,350.363 20.6898,348.196 20,345.5C 18.7081,319.71 26.0415,296.71 42,276.5C 41.9133,250.427 48.9133,226.427 63,204.5C 64.7668,201.228 67.2668,198.895 70.5,197.5 Z"/></g>
<g><path style="opacity:0.921" fill="currentColor" d="M 255.5,197.5 C 264.878,197.918 268.044,202.584 265,211.5C 251.27,240.127 228.436,254.793 196.5,255.5C 187.383,255.235 178.383,254.069 169.5,252C 162.64,249.443 160.973,244.943 164.5,238.5C 165.665,237.416 166.998,236.583 168.5,236C 177.764,237.264 187.098,238.431 196.5,239.5C 222.968,238.532 241.135,225.865 251,201.5C 252.397,199.93 253.897,198.596 255.5,197.5 Z"/></g>
<g><path style="opacity:0.928" fill="currentColor" d="M 452.5,263.5 C 455.425,263.46 458.091,264.293 460.5,266C 474.556,284.834 481.389,306.001 481,329.5C 479.471,332.516 476.971,333.849 473.5,333.5C 469.824,332.829 466.157,332.162 462.5,331.5C 462.419,346.239 458.586,359.905 451,372.5C 448.005,375.265 444.505,376.098 440.5,375C 432.287,371.645 424.787,367.145 418,361.5C 415.576,372.099 411.576,382.099 406,391.5C 402.744,393.429 399.244,393.929 395.5,393C 378.593,386.421 365.76,375.254 357,359.5C 355.125,351.381 358.292,347.548 366.5,348C 368.081,348.707 369.581,349.54 371,350.5C 376.361,361.361 384.528,369.361 395.5,374.5C 398.219,369.51 400.053,364.176 401,358.5C 401.373,350.814 401.373,343.148 401,335.5C 403.695,329.902 407.862,328.402 413.5,331C 420.049,341.883 428.883,350.383 440,356.5C 446.037,345.072 447.537,333.072 444.5,320.5C 445.181,314.495 448.515,311.828 454.5,312.5C 457.973,312.731 461.306,313.231 464.5,314C 461.239,299.98 455.406,287.147 447,275.5C 445.393,269.721 447.227,265.721 452.5,263.5 Z"/></g>
<g><path style="opacity:0.922" fill="currentColor" d="M 102.5,321.5 C 109.373,319.928 113.707,322.428 115.5,329C 113.421,340.507 114.588,351.674 119,362.5C 119.414,362.957 119.914,363.291 120.5,363.5C 131.472,358.361 139.639,350.361 145,339.5C 148.42,335.247 152.587,334.413 157.5,337C 158.701,337.903 159.535,339.069 160,340.5C 159.685,353.549 163.018,365.549 170,376.5C 180.752,369.416 188.085,359.75 192,347.5C 196.38,342.657 201.046,342.323 206,346.5C 207.881,351.253 207.547,355.92 205,360.5C 197.604,375.23 186.771,386.73 172.5,395C 167.474,396.494 163.308,395.327 160,391.5C 154.192,383.551 149.692,374.885 146.5,365.5C 139.351,371.913 131.351,377.079 122.5,381C 117.605,383.394 113.105,382.894 109,379.5C 98.5472,362.322 95.5472,343.989 100,324.5C 101.045,323.627 101.878,322.627 102.5,321.5 Z"/></g>
<g><path style="opacity:0.925" fill="currentColor" d="M 479.5,335.5 C 484.635,334.426 488.468,336.093 491,340.5C 504.861,370.001 510.195,401.001 507,433.5C 505.884,437.616 503.218,439.949 499,440.5C 487.348,435.759 475.848,430.592 464.5,425C 461.326,419.72 461.992,415.053 466.5,411C 475.32,411.608 483.487,414.441 491,419.5C 491.727,405.647 490.394,391.981 487,378.5C 483.722,366.497 479.555,354.83 474.5,343.5C 475.191,340.095 476.858,337.429 479.5,335.5 Z"/></g>
<g><path style="opacity:0.92" fill="currentColor" d="M 220.5,348.5 C 224.192,347.971 227.358,348.971 230,351.5C 231.686,364.532 236.853,375.865 245.5,385.5C 255.28,376.615 261.446,365.615 264,352.5C 268.076,348.966 272.409,348.633 277,351.5C 278.504,355.039 278.837,358.705 278,362.5C 273.609,379.547 264.442,393.38 250.5,404C 246.833,406 243.167,406 239.5,404C 223.639,390.448 215.806,373.281 216,352.5C 217.397,350.93 218.897,349.596 220.5,348.5 Z"/></g>
<g><path style="opacity:0.92" fill="currentColor" d="M 338.5,349.5 C 342.803,348.796 346.303,350.13 349,353.5C 349.544,375.249 341.711,393.415 325.5,408C 321.265,409.619 317.265,408.952 313.5,406C 308.667,401.167 303.833,396.333 299,391.5C 291.433,382.129 287.433,371.462 287,359.5C 290.071,354.701 294.238,353.535 299.5,356C 302.291,362.968 305.457,369.801 309,376.5C 311.954,381.39 315.621,385.723 320,389.5C 328.771,379.529 333.438,367.862 334,354.5C 335.025,352.313 336.525,350.646 338.5,349.5 Z"/></g>
<g><path style="opacity:0.924" fill="currentColor" d="M 31.5,356.5 C 41.526,355.686 45.026,360.019 42,369.5C 28.4473,385.979 21.2806,404.979 20.5,426.5C 31.8709,425.267 41.8709,420.934 50.5,413.5C 52.7364,403.296 58.2364,400.963 67,406.5C 66.9252,419.87 70.4252,432.204 77.5,443.5C 88.4906,435.685 96.4906,425.518 101.5,413C 108.6,409.615 113.266,411.615 115.5,419C 109.3,439.203 96.6334,453.87 77.5,463C 73.0479,463.86 69.5479,462.36 67,458.5C 61.144,450.283 56.8107,441.283 54,431.5C 39.8655,441.243 24.3655,444.743 7.5,442C 6.66667,441.167 5.83333,440.333 5,439.5C 2.88419,415.746 7.55086,393.412 19,372.5C 22.2979,366.383 26.4646,361.049 31.5,356.5 Z"/></g>
<g><path style="opacity:0.922" fill="currentColor" d="M 431.5,387.5 C 435.603,386.769 439.103,387.769 442,390.5C 447.56,410.913 444.894,430.247 434,448.5C 428.847,451.012 423.68,450.845 418.5,448C 410.344,444.173 403.011,439.173 396.5,433C 395.552,432.517 394.552,432.351 393.5,432.5C 390.485,442.199 385.651,450.866 379,458.5C 376.173,461.665 372.673,462.831 368.5,462C 350.919,451.922 339.586,437.088 334.5,417.5C 336.091,410.037 340.425,407.871 347.5,411C 348.333,411.833 349.167,412.667 350,413.5C 353.113,425.446 359.613,435.112 369.5,442.5C 377.869,432.068 382.036,420.068 382,406.5C 385.954,400.845 390.621,400.178 396,404.5C 401.835,417.505 411.335,426.505 424.5,431.5C 425.763,426.874 426.929,422.208 428,417.5C 428.369,408.817 428.369,400.15 428,391.5C 429.376,390.295 430.542,388.962 431.5,387.5 Z"/></g>
<g><path style="opacity:0.917" fill="currentColor" d="M 166.5,403.5 C 170.603,402.769 174.103,403.769 177,406.5C 177.958,414.529 179.291,422.529 181,430.5C 182.556,435.28 184.889,439.613 188,443.5C 199.1,435.775 206.934,425.608 211.5,413C 224.338,410.192 228.172,415.025 223,427.5C 215.167,443.333 203.333,455.167 187.5,463C 183.692,463.619 180.526,462.453 178,459.5C 165.882,444.155 160.882,426.822 163,407.5C 163.69,405.65 164.856,404.316 166.5,403.5 Z"/></g>
<g><path style="opacity:0.917" fill="currentColor" d="M 251.5,411.5 C 255.516,410.9 259.016,411.9 262,414.5C 263.459,427.744 268.459,439.411 277,449.5C 286.774,439.792 293.607,428.292 297.5,415C 304.872,412.019 309.539,414.353 311.5,422C 306.731,442.093 295.731,457.759 278.5,469C 275.743,469.584 273.077,469.25 270.5,468C 255.164,453.831 247.664,436.331 248,415.5C 249.376,414.295 250.542,412.962 251.5,411.5 Z"/></g>
<g><path style="opacity:0.92" fill="currentColor" d="M 477.5,440.5 C 480.972,440.126 483.972,441.126 486.5,443.5C 494.813,463.611 494.146,483.445 484.5,503C 482.466,504.006 480.3,504.506 478,504.5C 461.093,501.548 446.76,493.881 435,481.5C 430.697,476.327 430.531,471.161 434.5,466C 436.695,464.627 439.029,464.294 441.5,465C 446.108,468.604 450.441,472.604 454.5,477C 460.057,480.946 466.057,484.113 472.5,486.5C 474.015,484.453 474.849,482.119 475,479.5C 476.088,469.155 475.254,458.989 472.5,449C 472.308,445.035 473.975,442.201 477.5,440.5 Z"/></g>
<g><path style="opacity:0.921" fill="currentColor" d="M 19.5,446.5 C 22.1873,446.336 24.854,446.503 27.5,447C 29.3333,447.5 30.5,448.667 31,450.5C 29.7701,459.759 29.4367,469.092 30,478.5C 30.539,481.529 31.2057,484.529 32,487.5C 32.3879,488.428 33.0546,489.095 34,489.5C 40.2315,486.636 46.0648,483.136 51.5,479C 55.5222,473.98 59.8555,469.314 64.5,465C 75.0896,464.995 77.9229,469.828 73,479.5C 62.1813,493.331 48.348,502.831 31.5,508C 25.1524,509.24 20.9857,506.74 19,500.5C 12.9682,485.188 11.6348,469.521 15,453.5C 15.9383,450.743 17.4383,448.41 19.5,446.5 Z"/></g>
<g><path style="opacity:0.922" fill="currentColor" d="M 132.5,511.5 C 129.833,511.5 127.167,511.5 124.5,511.5C 110.003,496.85 102.837,479.184 103,458.5C 104.323,455.003 106.823,453.336 110.5,453.5C 112.926,453.404 115.093,454.07 117,455.5C 118.148,468.943 122.481,481.277 130,492.5C 140.218,484.412 147.218,474.079 151,461.5C 158.309,455.299 163.475,456.799 166.5,466C 160.86,485.458 149.527,500.624 132.5,511.5 Z"/></g>
</svg>
